<svg width="40" height="40" viewBox="0 0 40 40" fill="none" xmlns="http://www.w3.org/2000/svg">
<path d="M8.88932 21.1112V12.2223H5.55599C4.67193 12.2223 3.82409 12.5735 3.19897 13.1986C2.57385 13.8237 2.22266 14.6716 2.22266 15.5556V35.5556C2.22431 35.762 2.2834 35.9638 2.3933 36.1385C2.5032 36.3131 2.65956 36.4537 2.84488 36.5445C3.02341 36.6257 3.22025 36.6582 3.41541 36.6387C3.61056 36.6192 3.79707 36.5483 3.95599 36.4334L9.67821 32.2223H24.6115C25.0327 32.2347 25.4519 32.1606 25.8432 32.0045C26.2345 31.8483 26.5895 31.6135 26.8864 31.3146C27.1833 31.0156 27.4156 30.6589 27.569 30.2665C27.7224 29.8741 27.7936 29.4544 27.7782 29.0334V27.7778H15.556C13.7879 27.7778 12.0922 27.0755 10.8419 25.8252C9.5917 24.575 8.88932 22.8793 8.88932 21.1112Z" fill="black"/>
<path d="M34.4449 4.44458H15.556C14.6719 4.44458 13.8241 4.79577 13.199 5.42089C12.5738 6.04601 12.2227 6.89386 12.2227 7.77791V21.1112C12.2227 21.9953 12.5738 22.8432 13.199 23.4683C13.8241 24.0934 14.6719 24.4446 15.556 24.4446H30.6115L35.9227 28.5668C36.0805 28.6835 36.2665 28.7563 36.4617 28.7778C36.6569 28.7993 36.8543 28.7687 37.0338 28.689C37.2229 28.599 37.3826 28.4573 37.4947 28.2804C37.6067 28.1035 37.6665 27.8985 37.6671 27.689V7.77791C37.6676 6.91278 37.3317 6.08134 36.7304 5.45932C36.1291 4.8373 35.3095 4.47342 34.4449 4.44458Z" fill="#F4F4F4"/>
</svg>
