<svg width="39" height="35" viewBox="0 0 39 35" fill="none" xmlns="http://www.w3.org/2000/svg">
<path fill-rule="evenodd" clip-rule="evenodd" d="M19.3344 3.01425C18.3489 1.97618 17.1575 1.15531 15.8365 0.604175C13.855 -0.201104 11.5814 -0.281824 9.60953 0.855945C7.64727 1.98795 6.58253 3.98096 6.28079 6.08737C6.09817 7.46268 6.19756 8.86077 6.57292 10.1964C5.22853 10.5408 3.9684 11.1555 2.86941 12.003C1.19158 13.3157 0 15.2357 0 17.4997C0 19.7752 1.20504 21.7048 2.89631 23.0194C4.03435 23.8865 5.34095 24.5065 6.73244 24.8394C6.37902 26.1998 6.2832 27.6143 6.44992 29.01C6.72283 31.0645 7.69916 33.0402 9.60953 34.1434C11.5218 35.2465 13.7186 35.1043 15.6347 34.3106C16.8667 33.8032 18.0486 33.0037 19.1057 31.9851C20.0905 33.0231 21.2812 33.844 22.6016 34.3951C24.5831 35.2004 26.8567 35.2831 28.8305 34.1434C30.7909 33.0114 31.8556 31.0183 32.1554 28.91C32.3438 27.5935 32.2419 26.1867 31.8633 24.801C33.2082 24.4573 34.469 23.8433 35.5687 22.9963C37.2466 21.6856 38.4381 19.7637 38.4381 17.4997C38.4381 15.2241 37.2331 13.2945 35.5418 11.9799C34.404 11.1125 33.0973 10.4925 31.7057 10.1599C32.0612 8.73384 32.1612 7.31163 31.9882 5.98936C31.7172 3.93484 30.739 1.95912 28.8286 0.855945C26.9163 -0.24723 24.7196 -0.105009 22.8034 0.688739C21.5123 1.24105 20.3358 2.02975 19.3344 3.01425ZM13.7831 12.0637C15.2248 10.622 17.1802 9.81203 19.2191 9.81203C21.258 9.81203 23.2133 10.622 24.655 12.0637C26.0968 13.5054 26.9067 15.4608 26.9067 17.4997C26.9067 19.5385 26.0968 21.4939 24.655 22.9356C23.2133 24.3773 21.258 25.1873 19.2191 25.1873C17.1802 25.1873 15.2248 24.3773 13.7831 22.9356C12.3414 21.4939 11.5314 19.5385 11.5314 17.4997C11.5314 15.4608 12.3414 13.5054 13.7831 12.0637Z" fill="#F3F5F7"/>
<path d="M19.2191 13.6558C20.2385 13.6558 21.2162 14.0608 21.9371 14.7817C22.6579 15.5025 23.0629 16.4802 23.0629 17.4997C23.0629 18.5191 22.6579 19.4968 21.9371 20.2176C21.2162 20.9385 20.2385 21.3435 19.2191 21.3435C18.1996 21.3435 17.2219 20.9385 16.5011 20.2176C15.7802 19.4968 15.3753 18.5191 15.3753 17.4997C15.3753 16.4802 15.7802 15.5025 16.5011 14.7817C17.2219 14.0608 18.1996 13.6558 19.2191 13.6558Z" fill="black"/>
</svg>
