<svg width="50" height="50" viewBox="0 0 50 50" fill="none" xmlns="http://www.w3.org/2000/svg">
<path d="M23.3611 50L21.9921 47.8252L20.1128 49.5805C19.7494 48.7906 19.4073 48.046 19.0368 47.2418L16.941 48.7345C16.6836 47.8946 16.4404 47.1047 16.1857 46.2737L13.9135 47.476C13.7692 46.6264 13.6321 45.8169 13.4851 44.945L11.0206 45.8498V43.2537L8.4803 43.8371C8.55868 42.9785 8.63261 42.1654 8.71277 41.2855L6.16984 41.5126L6.7194 39.0189L4.16845 38.9094L5.04489 36.5146L2.52423 36.0693C2.92771 35.3033 3.30358 34.59 3.71687 33.8071L1.25677 33.0519C1.76714 32.3394 2.24455 31.6679 2.75135 30.9563L0.406156 29.884L2.16884 28.0067L0 26.6405L1.96754 24.9955C1.30219 24.4416 0.66802 23.9135 0.00801625 23.3595L2.16973 21.988L0.431096 20.1124L2.76115 19.0285L1.27369 16.9463L3.73468 16.1857C3.32496 15.4189 2.93929 14.6949 2.52779 13.9174L5.06538 13.489C4.76699 12.6875 4.4793 11.9144 4.15865 11.0541H6.74879C6.54749 10.1635 6.36757 9.36198 6.17073 8.49186L8.7288 8.71896C8.64686 7.86132 8.57026 7.05621 8.48475 6.17007L11.0143 6.74362V4.14574L13.4949 5.06305C13.6392 4.20986 13.7755 3.39674 13.9224 2.52663L16.1901 3.7325C16.4449 2.91048 16.6907 2.11428 16.9508 1.27356L19.043 2.7662L20.1119 0.423925L21.9939 2.18286L23.3602 0L25.0009 1.98336L26.6398 0L28.0043 2.18375L29.8846 0.425706L30.9623 2.7662C31.6615 2.26568 32.3349 1.78654 33.0528 1.26999C33.3084 2.10092 33.5507 2.8891 33.809 3.73072L36.0829 2.5293C36.2272 3.38873 36.3635 4.20274 36.5078 5.06395L38.9607 4.15286V6.74985L41.5179 6.16918L41.273 8.71807L43.8311 8.48919C43.6387 9.33526 43.4579 10.1323 43.2557 11.0274H45.8503C45.5243 11.9037 45.2383 12.6741 44.9364 13.4881L47.474 13.9156L46.2689 16.1849L48.7299 16.9436L47.2344 19.0357L49.5769 20.1097L47.8178 21.9898L50 23.3551L48.0262 24.9991L49.9982 26.6289L47.8303 28.0084L49.5814 29.8858L47.2469 30.9599C47.7483 31.6599 48.2204 32.3181 48.7343 33.0368L46.2876 33.8071C46.6857 34.5677 47.0652 35.2918 47.4713 36.0693L44.9533 36.5146C45.2473 37.3161 45.5269 38.0758 45.8307 38.9031L43.2877 39.0234C43.4659 39.8383 43.644 40.6309 43.8373 41.5064L41.2926 41.2855C41.3701 42.1449 41.4422 42.95 41.5215 43.829L38.9946 43.2591V45.8552L36.5185 44.9405C36.3706 45.7821 36.2263 46.605 36.0731 47.4707L33.8143 46.2728L33.0519 48.7291L30.9641 47.24L29.8828 49.5779L28.0123 47.8252L26.6318 49.9964L24.9973 48.0184L23.3611 50Z" fill="#00A39A"/>
</svg>
