<svg width="12" height="8" viewBox="0 0 12 8" fill="none" xmlns="http://www.w3.org/2000/svg">
<path fill-rule="evenodd" clip-rule="evenodd" d="M0.435683 6.68189C0.890884 7.19564 1.47361 7.35282 2.01838 7.22778C2.96512 6.98551 3.43487 6.3361 3.41203 5.445C3.38449 4.24265 4.20885 3.41808 5.4344 3.39384C5.53794 3.38894 5.6442 3.38331 5.75001 3.37354C5.77291 3.37359 5.79598 3.37334 5.81921 3.37278C7.05439 3.34597 7.90148 4.14841 7.92639 5.34138C7.93981 5.60999 7.95851 5.89735 8.049 6.14541C8.35029 6.92196 9.22502 7.34405 10.0395 7.14711C10.854 6.95017 11.3937 6.18131 11.3044 5.34826C11.2124 4.50584 10.4987 3.91986 9.59369 3.86874C9.58288 3.86786 9.57204 3.86698 9.56118 3.8661C9.13553 3.83154 8.67408 3.79408 8.30827 3.60651C7.52644 3.22014 7.32332 2.49807 7.34086 1.67685C7.35679 0.997195 6.98921 0.500408 6.36256 0.223886C5.72099 -0.068822 5.09032 0.0085515 4.54855 0.475543C4.19084 0.77586 4.00139 1.1332 3.95644 1.49741C3.93886 1.58613 3.92711 1.67745 3.92154 1.77085C3.92064 1.78138 3.91973 1.79193 3.91883 1.8025C3.88333 2.21684 3.84484 2.66602 3.65216 3.0221C3.25523 3.78315 2.51344 3.98087 1.6698 3.9638C0.97158 3.94829 0.461226 4.3061 0.177153 4.9161C-0.123549 5.54061 -0.0440621 6.15451 0.435683 6.68189Z" fill="black"/>
<ellipse cx="1.66475" cy="1.6143" rx="1.61422" ry="1.62569" transform="rotate(-90 1.66475 1.6143)" fill="black"/>
</svg>
