<svg width="187" height="187" viewBox="0 0 187 187" fill="none" xmlns="http://www.w3.org/2000/svg">
<g clip-path="url(#clip0_1_215)">
<path d="M56.4005 49.6388L56.1386 49.2227L55.779 49.5585C55.7095 49.4074 55.644 49.2649 55.5731 49.1111L55.1721 49.3967C55.1229 49.236 55.0763 49.0848 55.0276 48.9258L54.5929 49.1559C54.5652 48.9933 54.539 48.8384 54.5109 48.6716L54.0393 48.8447V48.348L53.5533 48.4596C53.5683 48.2953 53.5824 48.1397 53.5977 47.9714L53.1112 48.0148L53.2163 47.5377L52.7282 47.5167L52.8959 47.0585L52.4136 46.9733C52.4908 46.8268 52.5628 46.6903 52.6418 46.5405L52.1711 46.396C52.2688 46.2597 52.3601 46.1312 52.4571 45.995L52.0084 45.7899L52.3456 45.4306L51.9307 45.1692L52.3071 44.8545C52.1798 44.7485 52.0585 44.6475 51.9322 44.5415L52.3458 44.279L52.0131 43.9202L52.459 43.7128L52.1744 43.3144L52.6453 43.1688C52.5669 43.0221 52.4931 42.8836 52.4143 42.7348L52.8999 42.6529C52.8428 42.4995 52.7877 42.3516 52.7264 42.187H53.222C53.1834 42.0166 53.149 41.8632 53.1114 41.6967L53.6008 41.7402C53.5851 41.5761 53.5705 41.422 53.5541 41.2525L54.0381 41.3622V40.8651L54.5128 41.0407C54.5404 40.8774 54.5664 40.7218 54.5946 40.5553L55.0285 40.7861C55.0772 40.6288 55.1242 40.4764 55.174 40.3156L55.5743 40.6012L55.7788 40.153L56.1389 40.4896L56.4004 40.0719L56.7143 40.4514L57.0279 40.0719L57.289 40.4897L57.6487 40.1534L57.8549 40.6012C57.9887 40.5054 58.1176 40.4137 58.2549 40.3149C58.3038 40.4739 58.3502 40.6247 58.3996 40.7857L58.8347 40.5559C58.8623 40.7203 58.8884 40.876 58.916 41.0408L59.3853 40.8665V41.3634L59.8746 41.2523L59.8278 41.74L60.3172 41.6962C60.2804 41.8581 60.2458 42.0106 60.2071 42.1819H60.7036C60.6412 42.3495 60.5865 42.4969 60.5287 42.6527L61.0142 42.7345L60.7837 43.1687L61.2545 43.3139L60.9684 43.7141L61.4166 43.9197L61.08 44.2794L61.4976 44.5406L61.1199 44.8552L61.4972 45.167L61.0824 45.431L61.4175 45.7902L60.9708 45.9957C61.0667 46.1296 61.1571 46.2556 61.2554 46.3931L60.7872 46.5405C60.8634 46.686 60.936 46.8246 61.0137 46.9733L60.5319 47.0585C60.5882 47.2119 60.6417 47.3572 60.6998 47.5155L60.2133 47.5386C60.2473 47.6945 60.2814 47.8461 60.3184 48.0136L59.8315 47.9714C59.8463 48.1358 59.8601 48.2899 59.8753 48.4581L59.3918 48.349V48.8457L58.918 48.6707C58.8897 48.8318 58.8621 48.9892 58.8328 49.1549L58.4006 48.9257L58.2547 49.3956L57.8553 49.1107L57.6484 49.558L57.2905 49.2227L57.0263 49.6381L56.7136 49.2596L56.4005 49.6388Z" fill="#171219"/>
</g>
<path d="M69.9765 31.3435C69.7449 31.2378 69.5837 31.0632 69.4927 30.8196C69.4018 30.576 69.4092 30.3385 69.5149 30.1069C69.6171 29.8659 69.79 29.7 70.0336 29.6091C70.2771 29.5181 70.5165 29.5302 70.7515 29.6453C70.9925 29.7475 71.1584 29.9204 71.2494 30.1639C71.3403 30.4075 71.3282 30.6469 71.2131 30.8819C71.1075 31.1135 70.9328 31.2748 70.6892 31.3657C70.4457 31.4566 70.2081 31.4492 69.9765 31.3435ZM73.2705 40.2969L70.5795 33.0878L71.9146 32.5895L74.5898 39.7564C74.901 40.5903 74.9913 41.261 74.8606 41.7688C74.6275 42.6884 74.0425 43.323 73.1056 43.6727C72.7964 43.7881 72.5219 43.8533 72.2819 43.8681L72.1066 42.5406C72.2518 42.5291 72.4227 42.4867 72.6194 42.4132C73.0598 42.2489 73.3393 41.9684 73.4582 41.5718C73.5429 41.284 73.4803 40.859 73.2705 40.2969Z" fill="black"/>
<path d="M81.3723 37.4247C80.3593 37.66 79.4566 37.4642 78.6642 36.8372C78.1254 36.4182 77.7339 35.6827 77.4895 34.6307L76.675 31.1241L78.0631 30.8017L78.9285 34.5275C79.0687 35.1314 79.3066 35.5587 79.642 35.8093C80.0659 36.1318 80.5555 36.2285 81.1107 36.0996C81.8413 35.9299 82.4084 35.4542 82.812 34.6727L81.7159 29.9533L83.1039 29.6309L84.6989 36.4981L83.3547 36.8103L83.2088 36.182C83.0592 36.4221 82.8235 36.6668 82.5015 36.9161C82.1773 37.1556 81.8009 37.3252 81.3723 37.4247Z" fill="black"/>
<path d="M87.575 29.2824L87.6238 29.9556C88.1526 29.3659 88.8359 29.0407 89.6737 28.98C90.7309 28.9034 91.6136 29.2556 92.3219 30.0364C92.8226 30.5817 93.1123 31.3979 93.1911 32.485L93.4403 35.926L92.019 36.029L91.7644 32.5132C91.7109 31.7751 91.5319 31.2417 91.2274 30.9128C90.8351 30.48 90.3347 30.2856 89.7263 30.3297C88.9284 30.3875 88.2794 30.7704 87.7792 31.4784L88.1292 36.3107L86.7079 36.4137L86.1986 29.3821L87.575 29.2824Z" fill="black"/>
<path d="M99.9862 35.2075L100.177 36.5148C99.8701 36.5927 99.4974 36.6156 99.0586 36.5836C98.2208 36.5225 97.5776 36.1998 97.1289 35.6156C96.7805 35.169 96.6365 34.5318 96.6969 33.704L96.9317 30.4876L95.1365 30.3566L95.2293 29.085L97.0245 29.216L97.1664 27.2712L98.5877 27.3749L98.4457 29.3197L100.69 29.4835L100.597 30.7551L98.3529 30.5913L98.1127 33.8826C98.0807 34.3214 98.1286 34.6257 98.2566 34.7955C98.4379 35.0594 98.7529 35.2077 99.2017 35.2405C99.5109 35.263 99.7724 35.252 99.9862 35.2075Z" fill="black"/>
<path d="M109.741 35.1952L104.433 34.0492C104.346 34.6441 104.469 35.1873 104.803 35.6789C105.146 36.1725 105.616 36.4837 106.212 36.6124C106.965 36.7749 107.692 36.6046 108.394 36.1014L109.117 37.1627C108.753 37.473 108.296 37.6964 107.744 37.8332C107.193 37.9699 106.59 37.9676 105.935 37.8262C104.928 37.6088 104.157 37.0842 103.62 36.2522C103.084 35.4202 102.926 34.4911 103.148 33.4647C103.371 32.4286 103.869 31.6408 104.64 31.1014C105.423 30.5544 106.303 30.3864 107.281 30.5974C108.239 30.8042 108.957 31.3173 109.435 32.1366C109.912 32.9559 110.041 33.8787 109.819 34.9051C109.796 35.0126 109.77 35.1093 109.741 35.1952ZM107.062 31.8239C106.613 31.7268 106.176 31.7809 105.753 31.9863C105.333 32.1819 105.016 32.487 104.804 32.9016L108.557 33.712C108.552 33.2608 108.405 32.8554 108.114 32.496C107.833 32.1387 107.482 31.9146 107.062 31.8239Z" fill="black"/>
<path d="M112.666 35.0488L116.89 36.6021L116.476 37.7283L112.252 36.175L112.666 35.0488Z" fill="black"/>
<path d="M117.673 40.9996L118.81 40.4094C119.163 41.1805 119.659 41.7328 120.297 42.0662C120.59 42.219 120.879 42.2801 121.166 42.2494C121.466 42.2145 121.677 42.0818 121.797 41.8514C121.866 41.7184 121.891 41.5847 121.871 41.4502C121.856 41.3068 121.789 41.1647 121.671 41.0239C121.566 40.8789 121.452 40.7516 121.329 40.6421C121.219 40.5283 121.063 40.3846 120.86 40.2111C120.671 40.0332 120.517 39.8851 120.398 39.7667C119.608 38.9475 119.409 38.1613 119.803 37.4079C120.132 36.7786 120.615 36.4159 121.251 36.3199C121.888 36.2239 122.517 36.338 123.137 36.6622C123.953 37.0882 124.524 37.6798 124.85 38.4371L123.726 39.0008C123.463 38.4459 123.102 38.0481 122.641 37.8073C122.322 37.6406 122.014 37.5703 121.719 37.5963C121.432 37.627 121.226 37.762 121.101 38.0013C120.999 38.1963 121.011 38.3888 121.137 38.5789C121.273 38.7737 121.505 39.0194 121.835 39.316C122.095 39.5532 122.313 39.774 122.488 39.9784C122.668 40.1739 122.842 40.4119 123.012 40.6922C123.181 40.9725 123.27 41.2671 123.278 41.5759C123.299 41.8804 123.231 42.1833 123.074 42.4847C122.778 43.0519 122.306 43.3924 121.66 43.5061C121.023 43.6245 120.385 43.517 119.747 43.1836C118.772 42.6742 118.081 41.9462 117.673 40.9996Z" fill="black"/>
<path d="M131.045 46.6471L126.63 43.4866C126.313 43.9978 126.21 44.5452 126.321 45.1289C126.441 45.7184 126.748 46.1906 127.244 46.5457C127.87 46.9939 128.606 47.1265 129.45 46.9437L129.691 48.2046C129.234 48.3448 128.725 48.3682 128.165 48.2746C127.605 48.1811 127.052 47.9393 126.507 47.5493C125.67 46.9498 125.17 46.1617 125.008 45.1851C124.847 44.2085 125.071 43.2932 125.682 42.4394C126.299 41.5775 127.069 41.0522 127.991 40.8637C128.927 40.6728 129.802 40.8684 130.615 41.4504C131.412 42.0208 131.867 42.7769 131.979 43.7186C132.092 44.6603 131.843 45.5581 131.232 46.4119C131.168 46.5013 131.106 46.5797 131.045 46.6471ZM129.927 42.489C129.553 42.2212 129.131 42.0976 128.661 42.118C128.197 42.1304 127.786 42.2846 127.426 42.5807L130.549 44.8157C130.723 44.3997 130.749 43.969 130.625 43.5237C130.509 43.0842 130.276 42.7393 129.927 42.489Z" fill="black"/>
<path d="M138.245 59.1601L138.744 58.7514C137.96 58.6307 137.296 58.2377 136.751 57.5723C136.333 57.0616 136.079 56.5069 135.989 55.9082C135.888 55.2799 135.95 54.6607 136.174 54.0506C136.413 53.4419 136.799 52.919 137.333 52.4819C137.866 52.0447 138.458 51.7733 139.109 51.6675C139.759 51.5617 140.382 51.6202 140.978 51.843C141.533 52.0475 142.013 52.3974 142.419 52.8926C142.957 53.5502 143.218 54.2868 143.201 55.1023L143.7 54.6936L144.574 55.7614L139.119 60.2278L138.245 59.1601ZM139.922 57.7283L141.965 56.0558C142.16 55.2367 141.995 54.5061 141.469 53.8639C141.051 53.3533 140.528 53.0773 139.9 53.036C139.285 52.9962 138.731 53.1789 138.235 53.5844C137.74 53.9899 137.454 54.5085 137.377 55.1404C137.314 55.7737 137.494 56.3495 137.919 56.8679C138.419 57.4791 139.087 57.7659 139.922 57.7283Z" fill="black"/>
<path d="M150.341 66.1333L149.724 66.4069C150.458 66.7051 150.995 67.2381 151.335 68.006C151.765 68.9751 151.732 69.9249 151.237 70.8555C150.893 71.5111 150.223 72.0598 149.226 72.5016L146.072 73.8998L145.495 72.5971L148.717 71.1684C149.394 70.8685 149.835 70.5197 150.042 70.1218C150.316 69.6063 150.33 69.0697 150.083 68.512C149.759 67.7807 149.179 67.2994 148.343 67.0681L143.914 69.0318L143.337 67.729L149.782 64.8717L150.341 66.1333Z" fill="black"/>
<path d="M147.61 76.3851C148.108 75.5376 148.864 74.9782 149.878 74.7069C150.892 74.4355 151.827 74.5427 152.681 75.0284C153.539 75.5237 154.101 76.2737 154.37 77.2784C154.639 78.2831 154.524 79.2091 154.026 80.0566C153.531 80.9137 152.776 81.4779 151.762 81.7493C150.748 82.0206 149.812 81.9086 148.955 81.4133C148.1 80.9276 147.539 80.1824 147.27 79.1777C147.001 78.1731 147.114 77.2422 147.61 76.3851ZM152.003 76.2657C151.46 75.9762 150.874 75.9155 150.246 76.0835C149.618 76.2514 149.141 76.5964 148.815 77.1185C148.489 77.6405 148.409 78.2106 148.574 78.8289C148.739 79.4471 149.094 79.901 149.637 80.1904C150.18 80.4799 150.766 80.5406 151.394 80.3727C152.022 80.2047 152.499 79.8597 152.825 79.3377C153.151 78.8156 153.231 78.2455 153.066 77.6272C152.901 77.009 152.546 76.5551 152.003 76.2657ZM155.501 77.4418L155.249 76.4999L157.674 76.8603L158.081 78.3818L155.501 77.4418Z" fill="black"/>
<path d="M149.167 83.7393L150.299 84.3416C149.864 85.0697 149.69 85.7911 149.777 86.5058C149.817 86.8333 149.931 87.1065 150.119 87.3254C150.318 87.5529 150.547 87.6509 150.805 87.6193C150.954 87.6011 151.078 87.5457 151.178 87.4529C151.287 87.359 151.366 87.2234 151.415 87.0461C151.475 86.8776 151.515 86.7115 151.535 86.5478C151.567 86.3929 151.597 86.1827 151.625 85.9174C151.664 85.6607 151.698 85.45 151.729 85.2851C151.955 84.1694 152.49 83.56 153.334 83.4569C154.039 83.3708 154.611 83.5627 155.051 84.0328C155.492 84.5029 155.754 85.0853 155.839 85.7801C155.951 86.6934 155.787 87.4991 155.349 88.1975L154.247 87.5916C154.555 87.0604 154.677 86.5367 154.614 86.0205C154.57 85.6632 154.454 85.3701 154.265 85.1414C154.077 84.9225 153.849 84.8295 153.581 84.8623C153.363 84.8889 153.211 85.0082 153.126 85.2201C153.042 85.4419 152.972 85.7729 152.915 86.213C152.867 86.5614 152.808 86.8658 152.739 87.1261C152.68 87.3851 152.584 87.6639 152.449 87.9625C152.314 88.261 152.122 88.5011 151.872 88.6828C151.633 88.8731 151.345 88.9889 151.008 89.0302C150.372 89.1078 149.825 88.9128 149.365 88.4452C148.906 87.9875 148.632 87.4013 148.545 86.6866C148.412 85.5947 148.619 84.6123 149.167 83.7393Z" fill="black"/>
<path d="M151.154 104.293L151.835 98.9057C151.235 98.8702 150.705 99.04 150.244 99.4152C149.782 99.8003 149.513 100.296 149.436 100.901C149.34 101.665 149.573 102.374 150.135 103.03L149.14 103.842C148.8 103.506 148.537 103.07 148.353 102.533C148.169 101.995 148.119 101.394 148.203 100.73C148.332 99.7078 148.788 98.8935 149.57 98.2868C150.352 97.6801 151.264 97.4426 152.306 97.5743C153.358 97.7072 154.186 98.1343 154.79 98.8558C155.403 99.5885 155.647 100.451 155.521 101.443C155.398 102.415 154.95 103.175 154.175 103.722C153.4 104.269 152.492 104.477 151.45 104.345C151.341 104.332 151.243 104.314 151.154 104.293ZM154.28 101.331C154.338 100.875 154.246 100.445 154.005 100.042C153.774 99.6396 153.442 99.3507 153.011 99.1753L152.529 102.985C152.978 102.941 153.369 102.758 153.702 102.438C154.034 102.127 154.227 101.758 154.28 101.331Z" fill="black"/>
<path d="M153.846 119.824L152.74 119.069C152.828 118.953 152.91 118.797 152.987 118.602C153.158 118.164 153.136 117.768 152.92 117.415C152.762 117.16 152.403 116.923 151.845 116.705L151.244 116.47L150.451 118.495L149.264 118.03L150.057 116.005L144.679 113.9L145.198 112.573L150.576 114.678L151.177 113.142L152.365 113.606L151.763 115.143L152.322 115.361C153.151 115.686 153.711 116.066 154.002 116.502C154.531 117.289 154.614 118.148 154.25 119.08C154.129 119.387 153.995 119.635 153.846 119.824Z" fill="black"/>
<path d="M140.028 122.912L140.588 123.232C140.42 122.457 140.549 121.696 140.975 120.949C141.302 120.375 141.729 119.94 142.256 119.641C142.806 119.322 143.406 119.158 144.056 119.148C144.71 119.153 145.336 119.326 145.936 119.668C146.535 120.009 147.001 120.465 147.332 121.034C147.664 121.603 147.833 122.205 147.838 122.842C147.846 123.433 147.692 124.007 147.375 124.563C146.954 125.302 146.36 125.809 145.592 126.085L146.152 126.404L145.469 127.603L139.344 124.111L140.028 122.912ZM141.966 123.966L144.259 125.273C145.094 125.162 145.717 124.746 146.128 124.025C146.455 123.451 146.525 122.864 146.338 122.263C146.155 121.675 145.786 121.223 145.23 120.906C144.674 120.589 144.087 120.507 143.47 120.662C142.856 120.83 142.383 121.205 142.051 121.787C141.66 122.473 141.631 123.199 141.966 123.966Z" fill="black"/>
<path d="M136.266 131.639L134.963 132.005C134.795 131.541 134.742 131.034 134.806 130.486C134.87 129.937 135.045 129.425 135.331 128.95L134.008 127.407L134.984 126.172L135.982 128.126C136.658 127.449 137.444 127.083 138.342 127.028C139.247 126.978 140.077 127.251 140.83 127.847C141.654 128.498 142.123 129.315 142.238 130.298C142.354 131.281 142.086 132.185 141.435 133.008C141.063 133.479 140.603 133.836 140.054 134.078C139.514 134.326 138.954 134.438 138.374 134.414L138.331 133.041C139.204 133.081 139.886 132.791 140.376 132.172C140.772 131.669 140.931 131.113 140.853 130.503C140.774 129.893 140.472 129.38 139.946 128.965C139.405 128.537 138.829 128.362 138.219 128.441C137.609 128.52 137.093 128.826 136.671 129.359C136.169 129.995 136.034 130.755 136.266 131.639Z" fill="black"/>
<path d="M128.833 135.555L129.273 136.026C129.343 135.236 129.691 134.547 130.32 133.96C130.802 133.51 131.339 133.22 131.931 133.092C132.551 132.95 133.173 132.971 133.796 133.155C134.419 133.353 134.966 133.704 135.437 134.208C135.908 134.712 136.218 135.285 136.366 135.927C136.514 136.569 136.497 137.194 136.313 137.803C136.145 138.371 135.828 138.873 135.36 139.31C134.739 139.89 134.021 140.199 133.206 140.235L133.647 140.706L132.638 141.648L127.825 136.497L128.833 135.555ZM130.371 137.135L132.174 139.064C133.004 139.205 133.722 138.993 134.329 138.426C134.811 137.975 135.052 137.435 135.052 136.806C135.052 136.19 134.833 135.648 134.396 135.181C133.959 134.713 133.423 134.462 132.787 134.426C132.151 134.404 131.589 134.622 131.099 135.08C130.522 135.619 130.279 136.304 130.371 137.135Z" fill="black"/>
<path d="M119.639 142.402L117.682 138.669L118.944 138.007L123.888 147.44L122.665 148.081L122.366 147.51C122.063 148.267 121.535 148.843 120.782 149.237C120.215 149.534 119.636 149.668 119.045 149.64C118.41 149.611 117.813 149.421 117.256 149.07C116.699 148.718 116.261 148.237 115.941 147.626C115.62 147.014 115.474 146.38 115.502 145.722C115.525 145.077 115.706 144.485 116.045 143.947C116.362 143.431 116.812 143.02 117.397 142.713C118.132 142.328 118.879 142.224 119.639 142.402ZM121.602 146.149L120.377 143.81C119.623 143.449 118.896 143.452 118.196 143.819C117.603 144.13 117.216 144.586 117.035 145.189C116.85 145.806 116.906 146.397 117.203 146.964C117.5 147.531 117.943 147.914 118.533 148.113C119.119 148.325 119.704 148.278 120.288 147.972C121.023 147.587 121.461 146.979 121.602 146.149Z" fill="black"/>
<path d="M107.525 146.661L107.729 147.273C108.122 146.584 108.726 146.103 109.542 145.832C110.168 145.623 110.777 145.584 111.368 145.714C111.991 145.844 112.547 146.122 113.037 146.549C113.521 146.989 113.872 147.536 114.09 148.191C114.308 148.845 114.35 149.495 114.217 150.14C114.084 150.785 113.807 151.346 113.387 151.824C112.998 152.27 112.499 152.594 111.892 152.796C111.086 153.064 110.305 153.045 109.549 152.738L109.753 153.35L108.443 153.786L106.216 147.097L107.525 146.661ZM108.265 148.739L109.099 151.244C109.794 151.718 110.536 151.825 111.323 151.562C111.95 151.354 112.394 150.963 112.657 150.391C112.913 149.831 112.94 149.248 112.738 148.641C112.536 148.034 112.153 147.581 111.59 147.284C111.021 146.999 110.419 146.962 109.783 147.174C109.034 147.424 108.528 147.945 108.265 148.739Z" fill="black"/>
<path d="M100.895 155.264L100.811 153.892C100.966 153.904 101.151 153.891 101.368 153.851C101.722 153.786 102.055 153.608 102.368 153.316C102.672 153.037 102.892 152.712 103.027 152.341L102.184 147.753L103.586 147.496L104.86 154.43L103.502 154.679L103.356 153.882C103.218 154.182 102.983 154.454 102.652 154.698C102.322 154.952 101.921 155.122 101.449 155.208C101.252 155.245 101.068 155.263 100.895 155.264Z" fill="black"/>
<path d="M93.0428 149.914L92.6835 148.643C92.9772 148.526 93.3437 148.455 93.7829 148.429C94.6215 148.38 95.3014 148.616 95.8224 149.137C96.2261 149.534 96.452 150.147 96.5001 150.976L96.687 154.195L98.484 154.091L98.5579 155.364L96.7609 155.468L96.8739 157.415L95.4513 157.498L95.3383 155.551L93.0921 155.681L93.0182 154.408L95.2644 154.278L95.0732 150.984C95.0477 150.544 94.9604 150.249 94.8114 150.097C94.5972 149.859 94.2655 149.753 93.8163 149.779C93.5068 149.797 93.249 149.842 93.0428 149.914Z" fill="black"/>
<path d="M83.3736 151.199L88.7854 151.643C88.7946 151.042 88.6016 150.519 88.2065 150.076C87.8015 149.631 87.295 149.384 86.6871 149.334C85.9196 149.271 85.2208 149.535 84.5904 150.125L83.7358 149.167C84.0559 148.812 84.4803 148.531 85.009 148.323C85.5377 148.116 86.136 148.04 86.8037 148.094C87.8303 148.178 88.6638 148.598 89.3043 149.353C89.9447 150.108 90.2221 151.008 90.1363 152.055C90.0497 153.111 89.6592 153.957 88.965 154.593C88.26 155.237 87.4091 155.519 86.4125 155.437C85.4358 155.357 84.6571 154.942 84.0764 154.192C83.4957 153.442 83.2483 152.544 83.3341 151.497C83.3431 151.388 83.3562 151.288 83.3736 151.199ZM86.4694 154.192C86.9278 154.23 87.3533 154.119 87.7457 153.861C88.1374 153.612 88.4114 153.268 88.5678 152.829L84.7406 152.515C84.8043 152.962 85.0037 153.345 85.3388 153.663C85.6639 153.981 86.0408 154.157 86.4694 154.192Z" fill="black"/>
<path d="M70.7694 144.161L70.5511 144.768C71.2856 144.469 72.0575 144.465 72.8668 144.756C73.4879 144.979 73.9906 145.325 74.375 145.793C74.7842 146.28 75.0494 146.843 75.1704 147.481C75.2786 148.126 75.2159 148.773 74.9824 149.422C74.7489 150.072 74.3805 150.609 73.877 151.033C73.3736 151.458 72.809 151.728 72.1831 151.843C71.6017 151.953 71.0098 151.899 70.4076 151.683C69.6266 151.402 69.0354 150.918 68.634 150.232L67.2075 154.198L65.8666 153.716L69.4708 143.694L70.7694 144.161ZM70.0655 146.251L69.1721 148.735C69.4252 149.539 69.9423 150.081 70.7233 150.361C71.3444 150.585 71.9351 150.553 72.4954 150.265C73.0429 149.984 73.4249 149.542 73.6415 148.94C73.8581 148.338 73.8372 147.746 73.5789 147.164C73.3077 146.588 72.8569 146.187 72.2264 145.96C71.483 145.693 70.7627 145.79 70.0655 146.251Z" fill="black"/>
<path d="M60.2177 142.278L64.98 144.887C65.2332 144.341 65.2697 143.785 65.0896 143.219C64.9006 142.648 64.5387 142.216 64.0037 141.923C63.3284 141.553 62.5827 141.51 61.7665 141.792L61.3761 140.569C61.813 140.375 62.3151 140.291 62.8825 140.317C63.4499 140.343 64.0274 140.517 64.615 140.838C65.5183 141.333 66.1088 142.056 66.3864 143.006C66.664 143.956 66.5506 144.892 66.0462 145.813C65.5369 146.742 64.8359 147.356 63.9431 147.654C63.0367 147.955 62.145 147.866 61.268 147.385C60.4085 146.915 59.8662 146.219 59.6412 145.297C59.4163 144.376 59.556 143.455 60.0604 142.534C60.1133 142.437 60.1657 142.352 60.2177 142.278ZM61.8266 146.272C62.2301 146.493 62.6637 146.565 63.1275 146.489C63.5866 146.421 63.9768 146.218 64.2982 145.881L60.9304 144.037C60.8067 144.47 60.8331 144.901 61.0095 145.328C61.1771 145.751 61.4495 146.065 61.8266 146.272Z" fill="black"/>
<path d="M60.0056 139.059L58.7886 139.461C58.5625 138.644 58.1609 138.02 57.5838 137.589C57.3193 137.392 57.043 137.286 56.755 137.27C56.4529 137.257 56.2242 137.355 56.0687 137.563C55.979 137.683 55.9333 137.812 55.9317 137.948C55.9241 138.092 55.9675 138.242 56.0619 138.4C56.1423 138.56 56.2346 138.704 56.339 138.832C56.4293 138.961 56.5607 139.128 56.7332 139.332C56.8918 139.537 57.0202 139.708 57.1186 139.844C57.769 140.778 57.84 141.586 57.3318 142.267C56.9072 142.836 56.3729 143.117 55.7289 143.111C55.0849 143.105 54.4824 142.892 53.9213 142.474C53.1839 141.924 52.7141 141.249 52.5121 140.449L53.7111 140.071C53.8826 140.661 54.1768 141.111 54.5936 141.422C54.8821 141.637 55.1744 141.756 55.4705 141.777C55.7585 141.792 55.9833 141.691 56.1447 141.475C56.2763 141.299 56.2948 141.107 56.2003 140.899C56.0977 140.685 55.907 140.406 55.6281 140.06C55.4094 139.785 55.2298 139.532 55.0892 139.303C54.9426 139.081 54.8079 138.818 54.6851 138.515C54.5624 138.211 54.5216 137.906 54.5628 137.6C54.59 137.296 54.7053 137.008 54.9086 136.735C55.2913 136.222 55.8106 135.961 56.4666 135.951C57.1145 135.936 57.7271 136.143 58.3042 136.573C59.1859 137.231 59.753 138.06 60.0056 139.059Z" fill="black"/>
<path d="M54.2655 134.457L53.0069 134.699C52.8879 133.859 52.5699 133.189 52.053 132.687C51.8161 132.458 51.5558 132.317 51.2721 132.264C50.9743 132.213 50.7349 132.28 50.5539 132.467C50.4495 132.574 50.3877 132.695 50.3685 132.83C50.3424 132.972 50.366 133.127 50.4394 133.296C50.4985 133.464 50.5716 133.619 50.6587 133.759C50.7316 133.899 50.8404 134.082 50.9853 134.306C51.1161 134.53 51.2215 134.716 51.3016 134.863C51.8263 135.873 51.7929 136.683 51.2012 137.294C50.7069 137.803 50.1409 138.014 49.503 137.925C48.8652 137.835 48.295 137.547 47.7924 137.06C47.1319 136.419 46.7529 135.69 46.6554 134.871L47.8932 134.65C47.9874 135.257 48.2212 135.741 48.5945 136.103C48.8529 136.354 49.1276 136.509 49.4185 136.568C49.7021 136.62 49.938 136.549 50.1259 136.356C50.279 136.198 50.3221 136.01 50.2551 135.791C50.1809 135.566 50.0277 135.264 49.7956 134.886C49.6142 134.585 49.4685 134.311 49.3586 134.066C49.2418 133.827 49.142 133.549 49.0594 133.232C48.9767 132.915 48.9755 132.608 49.0557 132.309C49.1219 132.011 49.2733 131.74 49.5099 131.496C49.9554 131.037 50.5041 130.844 51.1559 130.919C51.8005 130.987 52.3812 131.271 52.8981 131.773C53.6878 132.538 54.1436 133.433 54.2655 134.457Z" fill="black"/>
<path d="M46.2805 124.107L45.7692 124.5C46.5491 124.645 47.2011 125.058 47.7255 125.739C48.1278 126.263 48.3647 126.825 48.436 127.426C48.5177 128.057 48.4372 128.674 48.1945 129.277C47.9378 129.878 47.536 130.389 46.9891 130.81C46.4421 131.23 45.8422 131.484 45.1892 131.57C44.5362 131.656 43.9152 131.578 43.3262 131.337C42.7775 131.116 42.308 130.752 41.9178 130.244C41.3996 129.571 41.1615 128.826 41.2036 128.012L40.6924 128.405L39.851 127.311L45.4391 123.013L46.2805 124.107ZM44.5602 125.487L42.4676 127.096C42.2474 127.909 42.3904 128.644 42.8964 129.302C43.2988 129.826 43.8134 130.117 44.4402 130.178C45.0529 130.236 45.613 130.07 46.1203 129.68C46.6276 129.29 46.9294 128.78 47.0257 128.151C47.1081 127.52 46.945 126.939 46.5365 126.408C46.0548 125.782 45.3961 125.475 44.5602 125.487Z" fill="black"/>
<path d="M34.8288 118.012L34.3427 116.721L34.9744 116.483C34.7332 116.382 34.4614 116.185 34.1591 115.892C33.8533 115.591 33.6246 115.239 33.4732 114.836C33.1174 113.891 33.1901 112.977 33.6911 112.094C32.6864 111.639 32.0061 110.938 31.6503 109.993C31.284 109.02 31.3596 108.099 31.877 107.231C32.2216 106.642 32.8993 106.157 33.9101 105.777L37.2793 104.509L37.7813 105.842L34.2014 107.19C33.6211 107.408 33.2288 107.7 33.0244 108.065C32.7605 108.528 32.7236 109.012 32.9138 109.517C33.1886 110.247 33.7539 110.799 34.61 111.171C34.9281 110.966 35.3024 110.782 35.7329 110.62L39.1022 109.352L39.6041 110.686L36.0243 112.033C35.444 112.251 35.0517 112.543 34.8473 112.909C34.5833 113.371 34.5517 113.869 34.7525 114.403C35.0167 115.105 35.5627 115.605 36.3905 115.902L40.925 114.195L41.427 115.529L34.8288 118.012Z" fill="black"/>
<path d="M37.3392 100.902C37.5225 101.926 37.2809 102.817 36.6143 103.576C36.1683 104.093 35.4138 104.447 34.3507 104.637L30.8071 105.271L30.5559 103.869L34.3211 103.195C34.9314 103.085 35.3702 102.87 35.6376 102.547C35.9813 102.141 36.1029 101.657 36.0024 101.095C35.8702 100.357 35.4242 99.7666 34.6642 99.3236L29.895 100.177L29.6439 98.7748L36.5835 97.5323L36.8267 98.8907L36.1918 99.0043C36.424 99.166 36.6563 99.4139 36.8888 99.7481C37.1115 100.084 37.2617 100.469 37.3392 100.902Z" fill="black"/>
<path d="M36.4919 90.3778L35.8471 90.3915C36.3895 90.9701 36.6698 91.6893 36.6881 92.5491C36.7022 93.209 36.5597 93.8022 36.2608 94.3286C35.9526 94.8853 35.5221 95.3346 34.9692 95.6764C34.4061 96.0084 33.7797 96.1818 33.0898 96.1964C32.4 96.2111 31.7666 96.0595 31.1897 95.7417C30.6128 95.4239 30.1586 94.9935 29.827 94.4504C29.5162 93.9469 29.354 93.3752 29.3404 92.7353C29.3228 91.9055 29.5624 91.1803 30.0593 90.5596L25.8453 90.6492L25.815 89.2245L36.4626 88.9981L36.4919 90.3778ZM34.2884 90.4697L31.649 90.5258C30.99 91.0499 30.6693 91.7269 30.6869 92.5567C30.701 93.2165 30.9425 93.7565 31.4115 94.1767C31.8703 94.587 32.4197 94.7854 33.0595 94.7718C33.6994 94.7582 34.2446 94.5265 34.6951 94.0768C35.1355 93.6174 35.3485 93.0527 35.3343 92.3829C35.3175 91.5931 34.9689 90.9553 34.2884 90.4697Z" fill="black"/>
<path d="M37.5365 81.3675L36.8978 81.2775C37.3402 81.9357 37.5015 82.6906 37.3814 83.5421C37.2893 84.1957 37.0535 84.7583 36.6739 85.2299C36.2803 85.7299 35.7832 86.1041 35.1826 86.3527C34.5735 86.59 33.9273 86.6605 33.2441 86.5642C32.5608 86.4679 31.96 86.2166 31.4417 85.8103C30.9233 85.4039 30.5441 84.9061 30.304 84.3169C30.0781 83.77 30.0098 83.1797 30.0992 82.5459C30.2178 81.7043 30.5828 81.0134 31.1942 80.4735L30.5555 80.3835L30.7481 79.017L37.7291 80.001L37.5365 81.3675ZM35.3468 81.1043L32.7326 80.7358C31.998 81.1473 31.5727 81.764 31.4569 82.5858C31.3648 83.2394 31.5165 83.8111 31.9119 84.3011C32.2989 84.7798 32.8093 85.0639 33.443 85.1532C34.0767 85.2425 34.652 85.1014 35.169 84.7299C35.6774 84.3472 35.9783 83.8241 36.0718 83.1606C36.1821 82.3783 35.9404 81.6929 35.3468 81.1043Z" fill="black"/>
<path d="M32.1645 74.145L32.8091 74.3453C32.453 73.6377 32.3997 72.8829 32.649 72.0807C32.9635 71.0685 33.6136 70.3752 34.5991 70.0008C35.2895 69.7337 36.1551 69.7618 37.196 70.0853L40.4906 71.1093L40.0677 72.4701L36.7015 71.4239C35.9948 71.2043 35.4328 71.1762 35.0155 71.3397C34.4694 71.547 34.1058 71.9419 33.9248 72.5244C33.6873 73.2883 33.8069 74.0323 34.2835 74.7564L38.9102 76.1943L38.4873 77.5551L31.7549 75.4628L32.1645 74.145Z" fill="black"/>
<path d="M41.8112 63.3105L43.0045 62.6725C43.2688 63.0898 43.4288 63.5732 43.4845 64.1226C43.5402 64.6721 43.4794 65.2095 43.3022 65.7349L44.9267 66.9568L44.239 68.3738L42.8437 66.6795C42.33 67.4861 41.6407 68.013 40.776 68.2603C39.9022 68.5031 39.0335 68.415 38.1699 67.9958C37.2253 67.5373 36.5909 66.8404 36.2668 65.905C35.9427 64.9696 36.0099 64.0296 36.4684 63.085C36.7304 62.5452 37.103 62.098 37.5864 61.7435C38.0607 61.3846 38.5835 61.1548 39.1548 61.0541L39.4925 62.3852C38.631 62.534 38.0279 62.9637 37.6829 63.6744C37.4035 64.2502 37.3678 64.8276 37.5759 65.4065C37.7839 65.9855 38.1894 66.4213 38.7921 66.7138C39.4129 67.0151 40.0127 67.0617 40.5917 66.8536C41.1706 66.6455 41.6086 66.2356 41.9055 65.6239C42.2592 64.8952 42.2277 64.124 41.8112 63.3105Z" fill="black"/>
<path d="M48.2259 57.8869L47.6944 57.5214C47.7968 58.3079 47.6044 59.0554 47.1171 59.764C46.7431 60.3079 46.2811 60.7062 45.731 60.959C45.1557 61.2309 44.5438 61.3441 43.8954 61.2987C43.2444 61.2394 42.6347 61.0143 42.0661 60.6233C41.4976 60.2323 41.072 59.7394 40.7893 59.1445C40.5066 58.5496 40.3892 57.9349 40.4372 57.3004C40.479 56.7102 40.6812 56.1514 41.0438 55.6241C41.5255 54.9237 42.1603 54.4682 42.9483 54.2577L42.4168 53.8922L43.1988 52.7551L49.0078 56.7498L48.2259 57.8869ZM46.3835 56.6746L44.2082 55.1787C43.3672 55.2193 42.7115 55.5815 42.2412 56.2654C41.8672 56.8092 41.7479 57.3886 41.8833 58.0036C42.0161 58.6046 42.3462 59.0865 42.8736 59.4491C43.4009 59.8118 43.9787 59.9421 44.6071 59.8402C45.2329 59.7244 45.7356 59.3905 46.1152 58.8384C46.5628 58.1875 46.6523 57.4662 46.3835 56.6746Z" fill="black"/>
<defs>
<clipPath id="clip0_1_215">
<rect width="9.5669" height="9.5669" fill="white" transform="translate(51.9307 40.0719)"/>
</clipPath>
</defs>
</svg>
